<?xml version="1.0" encoding="iso-8859-1"?>
<!-- Generator: Adobe Illustrator 19.0.0, SVG Export Plug-In . SVG Version: 6.00 Build 0)  -->
<svg version="1.1" id="Capa_1" xmlns="http://www.w3.org/2000/svg" xmlns:xlink="http://www.w3.org/1999/xlink" x="0px" y="0px"
	 viewBox="0 0 512 512" style="enable-background:new 0 0 512 512;" xml:space="preserve">
<path style="fill:#6F6571;" d="M474.414,201.694c0-20.206-25.048-61.62-62.121-73.643c-54.982-17.832-150.292,28.555-244.142-3.507
	l-90.175,12.023c0,20.428-50.426,51.495-66.6,61.154c-3.036,1.813-4.485,5.37-3.627,8.799l3.819,15.274
	c0.765,3.058,3.221,5.392,6.326,5.941c11.53,2.04,41.817,5.966,68.165-1.225c35.139,32.717,89.774,58.845,89.774,58.845v131.256
	l-23.524,5.881c-5.318,1.329-9.587,5.283-11.32,10.482l-2.265,6.794c-1.46,4.381,1.8,8.904,6.418,8.904h30.792
	c4.945,0,9.562-2.471,12.305-6.586l8.651-12.977c1.968-2.953,3.259-6.304,3.779-9.813l17.86-120.55
	c49.146,27.023,132.911,26.591,190.337,0.501l36.491,69.27v46.423l-19.449,7.152c-4.787,1.596-8.543,5.352-10.139,10.139
	l-2.513,7.539c-1.46,4.381,1.801,8.904,6.418,8.904h28.99c5.899,0,11.233-3.505,13.574-8.919l9.54-22.062
	c1.738-4.018,2.634-8.349,2.634-12.727v-57.216c0-2.099-0.391-4.131-1.195-6.069c-3.719-8.959-14.836-37.975-14.836-64.675
	C458.382,248.285,474.414,239.654,474.414,201.694z"/>
<path style="fill:#5D5360;" d="M125.58,148.692l-2.05,15.311c-0.793,5.923,3.038,11.54,8.887,12.761
	c9.492,1.981,24.431,2.407,39.527-7.982c2.895-1.992,3.687-5.907,1.665-8.781c-5.011-7.125-16.264-19.38-35.285-21.246
	C132.086,138.143,126.411,142.48,125.58,148.692z"/>
<path style="fill:#C9C6CA;" d="M182.346,87.644c-2.407-12.247-16.814-32.13-46.589-21.125c-2.131,0.788-3.634,3.794-0.003,3.54
	c9.363-0.654,19.153-0.727,22.045,9.396c7.348,25.716-37.073,34.067-56.777,35.736c-13.047,1.106-22.711,9.017-23.044,21.376
	c-0.165,6.103,6.065,13.269,17.7,14.47c17.536,1.811,36.334-3.035,42.64-5.412c0.037-0.014,0.074-0.028,0.111-0.042
	C153.456,139.908,188.357,118.24,182.346,87.644z"/>
<g>
	<path style="fill:#4B3F4E;" d="M145.141,448.675h30.792c4.945,0,9.562-2.472,12.305-6.586l8.651-12.977l-21.058-12.499
		l-23.524,5.881c-5.318,1.329-9.587,5.283-11.32,10.482l-2.265,6.795C137.263,444.151,140.524,448.675,145.141,448.675z"/>
	<path style="fill:#4B3F4E;" d="M445.357,414.942l-19.449,7.152c-4.787,1.596-8.543,5.352-10.139,10.139l-2.513,7.539
		c-1.46,4.381,1.801,8.904,6.419,8.904h28.989c5.899,0,11.233-3.506,13.575-8.919l5.394-12.472L445.357,414.942z"/>
</g>
<g>
	<path style="fill:#5D5360;" d="M86.059,226.512c35.139,32.717,89.774,58.845,89.774,58.845v-18.735
		c0-5.94-3.284-11.392-8.533-14.17l-48.659-25.747c-7.183-3.801-15.5-4.754-23.338-2.616
		C92.742,224.789,89.685,225.594,86.059,226.512z"/>
	<path style="fill:#5D5360;" d="M220.647,286.453l-2.119,12.295c49.146,27.023,132.911,26.591,190.337,0.501l-5.21-14.144
		c-2.711-7.359-10.318-11.716-18.013-10.208c-23.12,4.533-75.462,11.201-146.369-1.471
		C230.531,271.864,222.155,277.7,220.647,286.453z"/>
	<path style="fill:#5D5360;" d="M11.376,197.722c-3.036,1.813-4.485,5.37-3.627,8.799l3.819,15.274
		c0.765,3.058,3.221,5.392,6.326,5.941c7.21,1.276,21.752,3.288,38.078,2.86c-4.377-18.742-12.705-33.277-24.411-45.603
		C23.371,190.463,15.975,194.975,11.376,197.722z"/>
</g>
<path d="M509.812,320.388c-0.898-0.926-21.868-23.153-8.22-65.581c12.994-40.394,8.833-76.243-11.417-98.353
	c-12.004-13.106-28.499-19.441-43.51-16.848c-8.649-8.01-19.353-15.352-32.058-19.473c-25.58-8.298-57.464-3.937-94.381,1.114
	c-43.002,5.884-91.442,12.493-138.302-0.886c7.442-11.074,10.134-22.97,7.78-34.948c-1.676-8.527-7.85-19.647-20.154-25.279
	c-18.568-8.502-40.454-0.029-55.545,8.574c-3.52,2.007-4.806,6.445-2.908,10.024c1.898,3.58,6.297,5.008,9.937,3.218
	c7.445-3.655,20.608-7.613,26.565-4.97c1.085,0.482,2.289,1.306,2.987,3.751c0.992,3.47,0.603,6.223-1.263,8.924
	c-6.648,9.634-29.368,15.62-48.936,17.278c-17.467,1.48-29.485,12.992-29.908,28.645c-0.001,0.03,0.003,0.06,0.003,0.09
	c0,0.038-0.006,0.075-0.006,0.113c0,7.9-16.485,26.971-62.946,54.715c-5.892,3.519-8.727,10.373-7.058,17.057l3.818,15.275
	c1.482,5.93,6.309,10.446,12.295,11.507c6.508,1.151,19.598,3.055,34.894,3.055c10.022,0,20.99-0.821,31.669-3.204
	c29.995,27.824,71.553,48.719,85.185,55.178v120.607l-17.845,4.461c-7.847,1.963-14.059,7.715-16.616,15.388l-5.233,15.698
	c-0.763,2.287-0.379,4.802,1.031,6.758c1.409,1.955,3.673,3.114,6.084,3.114h48.094c2.508,0,4.85-1.253,6.24-3.34l13.042-19.563
	c2.566-3.85,4.281-8.302,4.958-12.875l16.383-110.582c24.542,12.414,54.374,18.646,85.294,18.646
	c32.227,0,65.604-6.764,95.339-20.264l32.754,62.176v39.336l-14.437,5.31c-6.935,2.353-12.448,7.892-14.765,14.842l-5.481,16.443
	c-0.763,2.287-0.379,4.802,1.031,6.758c1.409,1.955,3.673,3.114,6.084,3.114h48.094c2.991,0,5.696-1.777,6.884-4.523l13.397-30.982
	c2.156-4.986,3.25-10.269,3.25-15.702V343.69c0-1.064-0.229-2.12-0.666-3.091c-0.154-0.34-15.365-34.363-15.365-64.374
	c0-11.451,3.212-19.239,6.932-28.257c4.818-11.685,10.28-24.929,9.089-47.453c-0.554-10.467-8.145-27.473-18.89-42.317
	c-0.76-1.05-1.566-2.128-2.408-3.222c6.587,1.715,13.103,5.709,18.508,11.609c7.81,8.527,24.245,33.75,8.199,83.629
	c-16.575,51.528,10.687,79.574,11.855,80.743c1.47,1.469,3.401,2.206,5.331,2.206c1.918-0.001,3.835-0.729,5.295-2.188
	C512.723,328.045,512.742,323.316,509.812,320.388z M466.925,201.305c1.012,19.144-3.355,29.732-7.978,40.942
	c-3.965,9.612-8.063,19.553-8.063,33.976c0,29.857,12.878,61.69,16.031,69.035v58.924c0,3.373-0.679,6.653-2.018,9.749
	l-11.441,26.459h-32.762l2.191-6.572c0.845-2.534,2.862-4.552,5.396-5.396c0.072-0.024,0.145-0.05,0.216-0.076l19.448-7.151
	c2.951-1.085,4.912-3.896,4.912-7.039v-46.424c0-1.218-0.297-2.418-0.864-3.495l-51.808-98.345
	c-1.931-3.664-6.467-5.071-10.13-3.141c-3.665,1.931-5.071,6.467-3.141,10.13l11.19,21.243
	c-26.441,11.826-57.385,18.357-87.784,18.453c-0.229,0.001-0.454,0.002-0.682,0.002c-31.211,0-60.476-6.841-82.837-19.291
	l1.871-12.628c0.607-4.098-2.223-7.91-6.319-8.518c-4.1-0.611-7.911,2.221-8.518,6.319l-20.586,138.952
	c-0.355,2.398-1.255,4.733-2.601,6.753l-10.815,16.224H146.16l1.942-5.827c0.928-2.783,3.18-4.869,6.024-5.58l23.524-5.881
	c3.339-0.835,5.682-3.835,5.682-7.276V284.573c0-2.963-1.746-5.648-4.453-6.854c-0.489-0.218-45.634-20.472-79.072-48.799
	c5.855-2.494,11.387-5.655,16.347-9.639c3.229-2.595,3.743-7.315,1.148-10.544c-2.595-3.23-7.315-3.742-10.544-1.148
	C80.092,229.017,29.14,221.325,19.2,219.568c-0.173-0.031-0.307-0.171-0.357-0.375l-3.818-15.274
	c-0.028-0.111-0.064-0.388,0.195-0.543c15.86-9.47,29.373-18.584,40.163-27.087c11.53-9.086,19.6-17.129,24.46-24.464
	c3.819,2.612,8.667,4.617,14.326,5.776c0.508,0.104,1.014,0.154,1.513,0.154c3.488-0.001,6.612-2.447,7.34-5.997
	c0.831-4.059-1.785-8.02-5.843-8.852c-8.257-1.69-11.748-5.401-11.707-6.921c0.32-11.843,12.466-13.79,16.182-14.104
	c10.877-0.922,47.353-5.356,60.016-23.706c4.396-6.37,5.55-13.825,3.339-21.563c-0.238-0.835-0.515-1.641-0.829-2.416
	c6.569,3.376,9.888,9.432,10.807,14.11c5.266,26.794-29.588,45.844-39.21,49.479c-3.368,1.272-6.728,2.36-9.983,3.233
	c-4.001,1.072-6.374,5.186-5.302,9.186c1.073,4.002,5.193,6.376,9.186,5.302c3.734-1.001,7.57-2.243,11.399-3.69
	c1.715-0.648,3.655-1.486,5.733-2.487c9.485,4.912,15.227,11.505,18.438,16.37c-21.624,6.653-39.28,2.92-39.61,2.848
	c-4.029-0.912-8.041,1.61-8.964,5.641c-0.925,4.037,1.598,8.06,5.636,8.984c0.522,0.12,6.82,1.512,16.555,1.512
	c10.34,0,24.558-1.571,39.842-7.904c3.657-1.516,5.507-5.612,4.225-9.357c-0.252-0.736-5.443-15.378-21.518-26.73
	c3.331-2.355,6.655-5.003,9.791-7.919c51.987,16.873,104.587,9.694,151.057,3.338c35.095-4.802,65.402-8.946,87.721-1.708
	C442.662,145.001,466.173,187.092,466.925,201.305z"/>
<circle cx="87.584" cy="175.248" r="7.5"/>
<g>
</g>
<g>
</g>
<g>
</g>
<g>
</g>
<g>
</g>
<g>
</g>
<g>
</g>
<g>
</g>
<g>
</g>
<g>
</g>
<g>
</g>
<g>
</g>
<g>
</g>
<g>
</g>
<g>
</g>
</svg>
