<svg id="Capa_1" enable-background="new 0 0 512 512" height="512" viewBox="0 0 512 512" width="512" xmlns="http://www.w3.org/2000/svg"><g><path d="m420.484 98.422c-15.546-28.98-38.287-53.371-65.765-70.533-29.211-18.245-63.348-27.889-98.719-27.889s-69.508 9.644-98.719 27.889c-27.478 17.162-50.218 41.553-65.764 70.533s-23.287 61.417-22.388 93.801c.957 34.428 11.803 68.201 31.368 97.67l127.54 192.107h-112.037c-8.284 0-15 6.716-15 15s6.716 15 15 15h280c8.284 0 15-6.716 15-15s-6.716-15-15-15h-112.036l127.54-192.107c19.564-29.469 30.411-63.242 31.367-97.67.9-32.384-6.841-64.821-22.387-93.801zm-33.974 174.877-130.51 196.581-130.51-196.581c-32.464-48.899-35.282-108.973-7.537-160.695 27.746-51.724 79.352-82.604 138.048-82.604 58.695 0 110.301 30.88 138.046 82.603s24.928 111.796-7.537 160.696z"/><path d="m302.162 170.708c11.637-11.751 18.838-27.903 18.838-45.708 0-35.841-29.159-65-65-65s-65 29.159-65 65c0 17.805 7.201 33.957 18.838 45.708-34.816 17.115-58.838 52.948-58.838 94.292 0 8.284 6.716 15 15 15h180c8.284 0 15-6.716 15-15 0-41.344-24.022-77.177-58.838-94.292zm-81.162-45.708c0-19.299 15.701-35 35-35s35 15.701 35 35-15.701 35-35 35-35-15.701-35-35zm-38.493 125c6.969-34.19 37.274-60 73.493-60s66.524 25.81 73.493 60z"/></g></svg>